<svg width="13" height="5" viewBox="0 0 13 5" fill="none" xmlns="http://www.w3.org/2000/svg">
<path d="M0.628418 2.09829C0.920203 2.09829 1.21199 2.09829 2.66207 2.11819C4.11215 2.13808 6.71169 2.17787 8.1039 2.18511C9.60232 2.19289 9.80437 2.13848 10.0246 2.12522C10.5415 2.0581 10.7557 2.03158 10.9233 2.00465C10.9703 1.99139 11.0234 1.96486 11.1182 1.93753" stroke="white" stroke-linecap="round"/>
<path d="M11.5603 1.81696C11.3871 1.81696 11.119 1.76391 10.8714 1.68996C10.586 1.6047 10.3956 1.56296 10.1215 1.46911C9.69519 1.32316 9.44547 1.14819 9.16313 1.05354C8.97402 0.990142 8.78795 0.906238 8.56027 0.852583C8.37238 0.785665 8.13204 0.73181 7.94374 0.69182C7.90335 0.678356 7.86356 0.665093 7.74219 0.651428" stroke="white" stroke-linecap="round"/>
<path d="M11.6407 1.93753C11.5872 2.0577 11.4807 2.21806 11.3531 2.38566C11.1923 2.59688 10.9317 2.76707 10.7904 2.92843C10.6521 3.08646 10.316 3.30241 10.0807 3.47101C9.90259 3.59861 9.69947 3.74531 9.4314 3.87955C9.33775 3.91974 9.20512 3.97279 9.10364 4.02002C9.00216 4.06724 8.93585 4.10703 8.78714 4.2284" stroke="white" stroke-linecap="round"/>
</svg>
