<svg width="13" height="6" viewBox="0 0 13 6" fill="none" xmlns="http://www.w3.org/2000/svg">
<path d="M12.0123 3.1301C11.7205 3.1301 11.4287 3.1301 9.97861 3.11021C8.52853 3.09031 5.92899 3.05052 4.53678 3.04329C3.03837 3.0355 2.83631 3.08991 2.61607 3.10317C2.09921 3.17029 1.885 3.19682 1.7174 3.22374C1.67038 3.23701 1.61732 3.26353 1.52247 3.29086" stroke="white" stroke-linecap="round"/>
<path d="M1.08037 3.41143C1.2536 3.41143 1.52167 3.46448 1.76924 3.53844C2.05468 3.62369 2.2451 3.66544 2.5192 3.75928C2.9455 3.90524 3.19521 4.08021 3.47755 4.17486C3.66666 4.23825 3.85273 4.32216 4.08042 4.37581C4.26831 4.44273 4.50865 4.49658 4.69694 4.53657C4.73733 4.55004 4.77712 4.5633 4.8985 4.57697" stroke="white" stroke-linecap="round"/>
<path d="M1 3.29086C1.05345 3.17069 1.15996 3.01033 1.28757 2.84274C1.44839 2.63152 1.70897 2.46133 1.85024 2.29996C1.98858 2.14194 2.32469 1.92598 2.56001 1.75738C2.7381 1.62978 2.94122 1.48308 3.20929 1.34884C3.30293 1.30865 3.43556 1.2556 3.53704 1.20838C3.63853 1.16115 3.70484 1.12136 3.85355 0.999989" stroke="white" stroke-linecap="round"/>
</svg>
