<svg width="77" height="30" viewBox="0 0 77 30" fill="none" xmlns="http://www.w3.org/2000/svg">
<path d="M24.7183 3.5784C24.7362 3.45306 24.7723 2.80908 24.7097 2.39066C24.6726 2.14283 24.3412 2.01275 24.1159 1.90389C23.867 1.78358 23.1041 1.74154 22.4509 1.80421C22.0273 1.84485 21.7664 2.10135 21.1729 2.41551C20.8575 2.58249 20.6319 2.8026 20.3971 3.00141C20.1413 3.21808 20.0549 3.55895 19.9555 3.88337C19.8759 4.14289 19.8204 4.42335 19.8109 5.01682C19.8057 5.34539 19.963 5.80856 20.5022 6.76237C20.8913 7.45067 21.6918 7.77399 22.0508 7.98037C22.9384 8.49062 23.3839 8.33261 23.8958 8.37745C25.2218 8.36881 25.5093 8.2613 25.7888 8.14406C25.8523 8.09922 25.9058 8.02791 26.069 7.84639" stroke="#201F1F" stroke-linecap="round"/>
<path d="M29.0944 1.20129C29.0944 1.45143 29.1122 1.92091 29.1392 2.53707C29.1631 3.08146 29.1484 4.09812 29.1573 4.64837C29.1691 5.37981 29.2737 5.63028 29.3553 5.86447C29.4624 6.1719 29.4185 6.54762 29.4812 6.88177C29.5082 6.96308 29.5438 7.05222 29.5622 7.14271C29.5806 7.2332 29.5806 7.32234 29.6346 7.46821" stroke="#201F1F" stroke-linecap="round"/>
<path d="M32.7681 4.33475C32.7859 4.53194 32.8221 5.28343 32.8669 5.83719C32.8925 6.15281 32.9301 6.51196 32.9928 6.76507C33.0198 6.81936 33.0555 6.87285 33.0738 6.94497C33.0922 7.0171 33.0922 7.10624 33.1462 7.30613" stroke="#201F1F" stroke-linecap="round"/>
<path d="M32.66 1.09326H32.7681" stroke="#201F1F" stroke-linecap="round"/>
<path d="M39.089 3.09218C39.089 3.05652 39.089 2.96684 39.0712 2.83204C39.0543 2.70454 38.9453 2.60649 38.7843 2.52545C38.2047 2.23369 37.7049 2.65889 37.3613 2.92011C37.102 3.11724 37.0544 3.36122 37.0271 3.6851C36.9952 4.06488 36.9107 4.3877 36.8829 5.45605C36.8712 5.90469 37.1247 6.29587 37.4488 6.59382C37.8264 6.9409 38.7044 6.87394 39.528 6.78425C39.9337 6.74007 40.579 6.53358 41.0239 6.2983C41.2317 6.17215 41.411 5.99225 41.511 5.77641C41.5201 5.70429 41.5201 5.61515 41.5201 5.52331" stroke="#201F1F" stroke-linecap="round"/>
<path d="M44.4375 1.63351C44.4375 1.70483 44.4553 1.79505 44.4823 2.50008C44.5073 3.15121 44.4915 4.3996 44.5004 5.06924C44.5456 5.95445 44.5812 6.2786 44.6174 6.6384C44.6352 6.72917 44.6709 6.80048 44.7076 6.92798" stroke="#201F1F" stroke-linecap="round"/>
<path d="M44.6536 3.84855C44.7611 3.77669 45.0123 3.63353 45.2471 3.49792C45.5066 3.34798 45.7147 3.1473 46.0213 2.84125C46.2044 2.65844 46.2733 2.35529 46.427 2.12055C46.4543 2.06626 46.4721 2.01277 46.508 1.94956C46.544 1.88635 46.5974 1.81504 46.7066 1.63351" stroke="#201F1F" stroke-linecap="round"/>
<path d="M45.2479 3.95657C45.2657 4.06408 45.3732 4.27964 45.5175 4.50493C45.6753 4.75137 45.9664 4.85663 46.4254 4.98251C46.7692 5.07683 47.0302 5.10893 47.1379 5.16269C47.4471 5.31687 47.5342 5.93497 47.8848 6.59246C47.9491 6.72914 47.9491 6.80046 47.9581 6.88177C47.967 6.96307 47.9848 7.05221 48.0032 7.30613" stroke="#201F1F" stroke-linecap="round"/>
<path d="M56.4851 1.79556C56.4851 1.81339 56.4851 1.83122 56.4851 2.38417C56.4851 2.93711 56.4851 4.02464 56.494 4.62945C56.5077 5.55887 56.6104 6.02573 56.6383 6.8796C56.6445 7.07122 56.6115 7.16026 56.5845 7.17944C56.0978 7.52502 56.5029 5.52384 56.5567 5.41606C56.6876 5.15363 57.0956 5.07381 57.4022 4.99223C57.8729 4.86698 58.2474 5.14404 58.5373 5.30666C58.7608 5.43206 58.8795 5.68429 59.0686 5.95442C59.2514 6.21557 59.2404 6.99386 59.1777 7.46739C59.1507 7.52169 59.1151 7.57517 59.0878 7.63838C59.0605 7.70159 59.0427 7.77291 59.0243 8.00846" stroke="#201F1F" stroke-linecap="round"/>
<path d="M62.9681 6.38771C63.1286 6.44174 63.597 6.37042 63.9841 6.21726C64.3557 6.07021 64.5165 5.84854 64.7231 5.67701C64.9185 5.51488 64.9843 5.20024 65.057 4.93903C65.074 4.87787 65.0395 4.82206 64.852 4.79451C63.8973 4.6542 63.6715 4.85664 63.4103 4.90175C63.1417 4.94815 62.7553 5.41202 62.4287 5.69376C62.3181 5.78918 62.248 5.90095 62.221 6.14244C62.1644 6.64828 62.2653 7.0533 62.382 7.18809C62.608 7.44917 62.8947 7.5579 63.1832 7.63893C63.4932 7.72603 63.7774 7.774 64.0835 7.78345C64.3895 7.73834 64.6964 7.72051 64.822 7.6935C64.8941 7.68432 64.9833 7.68432 65.1832 7.63029" stroke="#201F1F" stroke-linecap="round"/>
<path d="M68.5327 4.49683C68.5327 4.72913 68.5684 5.26939 68.5778 6.91256C68.5689 7.25157 68.5511 7.30505 68.5419 7.50198C68.5327 7.6989 68.5327 8.03763 68.5327 8.22456" stroke="#201F1F" stroke-linecap="round"/>
<path d="M68.8569 5.52331C68.8747 5.4158 68.9466 5.20024 69.0813 4.96604C69.2586 4.65801 69.5754 4.49791 69.8644 4.37122C69.9243 4.34499 69.9547 4.28181 70.0087 4.26317C70.0627 4.24453 70.134 4.26236 70.1886 4.3072C70.3022 4.40058 70.369 4.53249 70.459 4.62217C70.5133 4.74751 70.5317 5.03492 70.5138 5.38581C70.496 5.52277 70.4603 5.57625 70.4776 5.73941" stroke="#201F1F" stroke-linecap="round"/>
<path d="M74.0433 7.036C74.2578 7.036 74.6905 7.00035 75.2208 6.87447C75.5362 6.7996 75.7175 6.6762 75.8075 6.58652C76.1416 6.25336 75.8623 5.52384 75.8086 5.42497C75.6939 5.21414 75.288 5.25317 74.9628 5.16349C74.7013 5.0914 74.4053 5.43146 74.0714 5.78316C73.8347 6.03243 73.7915 6.40391 73.6746 6.66593C73.556 6.93157 73.5571 7.26831 73.4944 7.56626C73.4671 7.69612 73.395 7.82747 73.4039 7.98928C73.4079 8.06238 73.4306 8.11543 73.4755 8.16081C73.7271 8.41549 74.2216 8.44066 74.68 8.4855C75.7354 8.4412 75.9515 8.29695 76.0773 8.21618C76.1319 8.17107 76.1676 8.11759 76.2043 8.06248" stroke="#201F1F" stroke-linecap="round"/>
<path d="M17.0467 11.25C16.8139 11.25 16.4179 11.3213 16.0846 11.4029C15.8115 11.4697 15.5535 11.4661 15.265 11.5287C14.9503 11.5971 14.6707 11.6995 14.4006 11.7989C14.1083 11.9064 13.8603 12.0236 13.5991 12.1589C13.324 12.3015 12.7463 12.6168 12.0518 12.9596C11.5879 13.1886 11.2682 13.4456 10.9608 13.6355C10.6632 13.8193 10.2061 14.3089 9.46783 14.9215C9.00634 15.3045 8.58425 15.787 8.28684 16.102C7.9889 16.4175 7.77387 16.7411 7.49429 17.0833C7.16271 17.4892 6.76576 18.0193 6.54858 18.3799C6.3105 18.7753 5.93701 19.0285 5.52291 19.6484C5.23236 20.0834 4.85651 20.6125 4.2182 21.7176C3.96747 22.1517 3.77601 22.6104 3.55018 23.2773C3.4063 23.7022 3.19902 24.1609 3.06369 24.5834C2.93611 24.9816 2.78519 25.491 2.58664 26.1766C2.45365 26.6358 2.45995 27.0772 2.37027 27.42C2.21937 27.9967 2.29788 28.5877 2.25304 28.9962C2.24414 29.0772 2.24385 29.1842 2.2706 29.2125C2.4439 29.3963 2.85434 28.9173 3.22387 28.665C3.57719 28.4237 3.89918 28.269 4.0356 28.0704C4.05679 28.0396 3.97374 28.0161 3.91053 28.0337C3.62292 28.1136 3.43349 28.2495 3.26196 28.4113C3.09645 28.5675 2.89324 28.6817 2.64094 28.9062C2.5784 28.9618 2.55072 29.0232 2.44321 29.0507C2.3357 29.0783 2.15741 29.0783 1.96751 28.9802C1.21823 28.5933 1.20009 28.1609 1.01991 27.9894C0.911593 27.7822 0.803543 27.6201 0.740604 27.5034C0.713321 27.4402 0.695493 27.3689 0.677124 27.2954" stroke="#201F1F" stroke-linecap="round"/>
</svg>
